# xmcd CD database file
#
# Track frame offsets:
#	183
#	20020
#	38513
#	51880
#	64690
#	88025
#	99825
#	112950
#	126940
#	136400
#	164048
#	180958
#	193665
#	208630
#	228978
#	243633
#	258095
#	275555
#	289440
#	304918
#
# Disc length: 4214 seconds
#
# Revision: 1
# Processed by: cddbd v1.5.1PL0 Copyright (c) Steve Scherf et al.
# Submitted via: CDex 1.51
#
DISCID=20107414
DTITLE=Sammy Davis Jnr - The Best of Sammy Davis Jnr
DYEAR=1993
DGENRE=Jazz
TTITLE0=The Lady Is A Tramp
TTITLE1=These Foolish Things
TTITLE2=Love Me Or Leave Me
TTITLE3=September Song
TTITLE4=Birth Of The Blues
TTITLE5=That Old Black Magic
TTITLE6=Don't Blame Me
TTITLE7=You're The Top
TTITLE8=Something's Gotta Give
TTITLE9=It's All Right By Me
TTITLE10=Ol' Man River
TTITLE11=Hey There
TTITLE12=Sit Down You're Rockin' The Boat
TTITLE13=I Gotta Woman
TTITLE14=Ney York's My Home
TTITLE15=Earthbound
TTITLE16=Gee Baby Ain't I Good To You
TTITLE17=I'll Know
TTITLE18=Just In Time
TTITLE19=Let's Face The Music And Dance
EXTD=YEAR: 1993
EXTT0=
EXTT1=
EXTT2=
EXTT3=
EXTT4=
EXTT5=
EXTT6=
EXTT7=
EXTT8=
EXTT9=
EXTT10=
EXTT11=
EXTT12=
EXTT13=
EXTT14=
EXTT15=
EXTT16=
EXTT17=
EXTT18=
EXTT19=
PLAYORDER=
